<svg width="171" height="26" viewBox="0 0 171 26" fill="none" xmlns="http://www.w3.org/2000/svg">
<path fill-rule="evenodd" clip-rule="evenodd" d="M0.358002 2.75C1.694 8.032 2.106 19.96 1.056 22.971L0 26H3.876H7.751L7.184 20.5L6.616 15H12.256C17.828 15 17.896 15.035 17.896 17.935C17.896 19.549 17.457 22.024 16.921 23.435C15.99 25.883 16.103 26 19.421 26H22.896V13V0H18.87H14.845L16.37 2.95C17.209 4.573 17.896 7.048 17.896 8.45C17.896 10.874 17.625 11 12.396 11H6.896V5.5V0H3.279C-0.168001 0 -0.304998 0.129 0.358002 2.75ZM29.896 15.463V25.091L36.646 24.796C41.848 24.568 43.396 24.156 43.396 23C43.396 21.92 42.066 21.415 38.646 21.195C34.712 20.943 33.896 20.556 33.896 18.945C33.896 17.342 34.6 17 37.896 17C43.29 17 43.513 14.255 38.154 13.81C35.592 13.598 34.312 12.966 34.092 11.807C33.833 10.439 34.694 10.056 38.584 9.807C41.914 9.595 43.396 9.066 43.396 8.089C43.396 7.056 41.59 6.566 36.646 6.256L29.896 5.834V15.463ZM47.896 15.361C47.896 24.333 48.034 25 49.896 25C51.515 25 51.896 24.333 51.896 21.5C51.896 19.165 52.362 18 53.297 18C54.068 18 55.628 19.575 56.763 21.5C58.282 24.074 59.517 25 61.43 25H64.032L61.964 22.096C59.506 18.644 59.378 17.413 61.396 16.638C63.355 15.887 63.382 9.648 61.433 8.031C60.629 7.363 57.254 6.571 53.933 6.27L47.896 5.722V15.361ZM88.133 7.217C87.173 8.377 80.896 23.389 80.896 24.526C80.896 25.739 85.026 24.825 85.534 23.5C85.911 22.519 87.469 22 90.034 22C92.6 22 94.158 22.519 94.534 23.5C95.11 24.999 98.947 25.668 98.839 24.25C98.684 22.225 91.253 6.603 90.296 6.291C89.691 6.095 88.718 6.511 88.133 7.217ZM113.858 11.344L113.819 16.5L109.608 11.742C107.291 9.125 104.609 6.987 103.646 6.992C102.11 6.999 101.896 8.098 101.896 16C101.896 24.253 102.058 25 103.844 25C105.488 25 105.839 24.183 106.094 19.75L106.396 14.5L110.359 19.75C112.545 22.645 115.124 25 116.109 25C117.691 25 117.896 23.98 117.896 16.117C117.896 8.074 117.707 7.184 115.896 6.71C114.09 6.238 113.892 6.688 113.858 11.344ZM129.76 7.246C128.495 8.283 121.896 22.743 121.896 24.477C121.896 25.72 125.736 24.86 126.258 23.5C126.634 22.519 128.192 22 130.758 22C133.323 22 134.881 22.519 135.258 23.5C135.717 24.696 139.896 25.795 139.896 24.72C139.896 23.92 132.66 7.389 132.028 6.746C131.621 6.332 130.601 6.557 129.76 7.246ZM139.312 6.917C137.882 8.35 139.265 10 141.896 10H144.896V17.5C144.896 24.333 145.074 25 146.896 25C148.718 25 148.896 24.333 148.896 17.5C148.896 10.11 148.934 10 151.469 10C153.299 10 153.949 9.536 153.719 8.395C153.464 7.128 151.958 6.76 146.562 6.645C142.803 6.565 139.54 6.688 139.312 6.917ZM157.384 6.846C157.115 7.114 156.896 11.308 156.896 16.167V25H163.396C169.229 25 169.896 24.795 169.896 23C169.896 21.296 169.229 21 165.396 21C161.563 21 160.896 20.704 160.896 19C160.896 17.296 161.563 17 165.396 17C168.65 17 169.896 16.6 169.896 15.557C169.896 14.576 168.541 14.017 165.655 13.807C162.561 13.583 161.323 13.027 161.081 11.75C160.8 10.267 161.535 10 165.896 10C170.042 10 170.98 9.695 170.719 8.431C170.474 7.242 168.881 6.801 164.134 6.61C160.689 6.472 157.652 6.578 157.384 6.846ZM65.896 8.5C65.896 9.5 66.896 10 68.896 10H71.896V17.5C71.896 24.333 72.074 25 73.896 25C75.718 25 75.896 24.333 75.896 17.5C75.896 10.167 75.952 10 78.396 10C79.952 10 80.896 9.433 80.896 8.5C80.896 7.3 79.396 7 73.396 7C67.396 7 65.896 7.3 65.896 8.5ZM58.716 12.75C58.996 14.723 58.595 15 55.466 15C52.301 15 51.896 14.709 51.896 12.437C51.896 10.147 52.243 9.907 55.146 10.187C57.637 10.427 58.471 11.025 58.716 12.75ZM132.182 15.984C132.581 17.512 132.222 18 130.695 18C129.27 18 128.859 17.538 129.289 16.418C129.623 15.548 129.896 14.397 129.896 13.859C129.896 12.229 131.619 13.831 132.182 15.984ZM91.289 15.582C92.169 17.876 92.098 18 89.896 18C88.796 18 87.896 17.812 87.896 17.582C87.896 16.362 89.215 14 89.896 14C90.328 14 90.955 14.712 91.289 15.582Z" fill="#43388A"/>
</svg>
